<?xml version="1.0" encoding="UTF-8" standalone="no"?>
<!-- Created with Inkscape (http://www.inkscape.org/) -->

<svg
   xmlns:dc="http://purl.org/dc/elements/1.1/"
   xmlns:cc="http://creativecommons.org/ns#"
   xmlns:rdf="http://www.w3.org/1999/02/22-rdf-syntax-ns#"
   xmlns:svg="http://www.w3.org/2000/svg"
   xmlns="http://www.w3.org/2000/svg"
   xmlns:sodipodi="http://sodipodi.sourceforge.net/DTD/sodipodi-0.dtd"
   xmlns:inkscape="http://www.inkscape.org/namespaces/inkscape"
   width="52.916672mm"
   height="52.916668mm"
   viewBox="0 0 52.916669 52.916668"
   version="1.1"
   id="svg8"
   inkscape:version="0.92.1 r15371"
   sodipodi:docname="fan_off.svg">
  <defs
     id="defs2" />
  <sodipodi:namedview
     id="base"
     pagecolor="#ffffff"
     bordercolor="#666666"
     borderopacity="1.0"
     inkscape:pageopacity="0.0"
     inkscape:pageshadow="2"
     inkscape:zoom="2.8"
     inkscape:cx="19.094002"
     inkscape:cy="82.925266"
     inkscape:document-units="mm"
     inkscape:current-layer="layer1"
     showgrid="false"
     units="mm"
     inkscape:window-width="1920"
     inkscape:window-height="1017"
     inkscape:window-x="1912"
     inkscape:window-y="-8"
     inkscape:window-maximized="1"
     inkscape:snap-page="false" />
  <metadata
     id="metadata5">
    <rdf:RDF>
      <cc:Work
         rdf:about="">
        <dc:format>image/svg+xml</dc:format>
        <dc:type
           rdf:resource="http://purl.org/dc/dcmitype/StillImage" />
        <dc:title></dc:title>
      </cc:Work>
    </rdf:RDF>
  </metadata>
  <g
     inkscape:label="Layer 1"
     inkscape:groupmode="layer"
     id="layer1"
     transform="translate(0,-244.08332)">
    <circle
       style="fill:none;fill-opacity:1;stroke:#666666;stroke-width:2.64583325;stroke-linecap:round;stroke-miterlimit:4;stroke-dasharray:none;stroke-dashoffset:0;stroke-opacity:1"
       id="path5831"
       cx="26.458334"
       cy="270.54166"
       r="5.6530938" />
    <circle
       r="24.729803"
       cy="270.54166"
       cx="26.458334"
       id="circle5833"
       style="fill:none;fill-opacity:1;stroke:#666666;stroke-width:2.72477651;stroke-linecap:round;stroke-miterlimit:4;stroke-dasharray:none;stroke-dashoffset:0;stroke-opacity:1" />
    <g
       id="g5881">
      <g
         style="stroke-width:3.61015987;stroke-miterlimit:4;stroke-dasharray:none"
         id="g5817"
         transform="matrix(0,-0.73288538,0.73288538,0,-162.33353,281.97837)">
        <path
           id="path5813"
           d="M 25.4189,277.25073 A 9.8273811,9.8273811 0 0 1 19.352295,286.33005 9.8273811,9.8273811 0 0 1 8.6425114,284.19974 9.8273811,9.8273811 0 0 1 6.5122031,273.48996 9.8273811,9.8273811 0 0 1 15.59152,267.42335"
           style="fill:none;fill-opacity:1;stroke:#666666;stroke-width:3.61015987;stroke-linecap:round;stroke-miterlimit:4;stroke-dasharray:none;stroke-dashoffset:0;stroke-opacity:1"
           inkscape:connector-curvature="0" />
        <path
           inkscape:connector-curvature="0"
           id="path5815"
           d="m 25.418901,277.25073 a 9.8273811,9.8273811 0 0 1 -6.949008,-2.87837 9.8273811,9.8273811 0 0 1 -2.878373,-6.94901"
           style="fill:none;fill-opacity:1;stroke:#666666;stroke-width:3.61015987;stroke-linecap:round;stroke-miterlimit:4;stroke-dasharray:none;stroke-dashoffset:0;stroke-opacity:1" />
      </g>
      <g
         style="stroke-width:3.61015987;stroke-miterlimit:4;stroke-dasharray:none"
         id="g5829"
         transform="matrix(0,0.73288538,-0.73288538,0,215.25019,259.10494)">
        <path
           id="path5825"
           d="M 25.4189,277.25073 A 9.8273811,9.8273811 0 0 1 19.352295,286.33005 9.8273811,9.8273811 0 0 1 8.6425114,284.19974 9.8273811,9.8273811 0 0 1 6.5122031,273.48996 9.8273811,9.8273811 0 0 1 15.59152,267.42335"
           style="fill:none;fill-opacity:1;stroke:#666666;stroke-width:3.61015987;stroke-linecap:round;stroke-miterlimit:4;stroke-dasharray:none;stroke-dashoffset:0;stroke-opacity:1"
           inkscape:connector-curvature="0" />
        <path
           inkscape:connector-curvature="0"
           id="path5827"
           d="m 25.418901,277.25073 a 9.8273811,9.8273811 0 0 1 -6.949008,-2.87837 9.8273811,9.8273811 0 0 1 -2.878373,-6.94901"
           style="fill:none;fill-opacity:1;stroke:#666666;stroke-width:3.61015987;stroke-linecap:round;stroke-miterlimit:4;stroke-dasharray:none;stroke-dashoffset:0;stroke-opacity:1" />
      </g>
      <g
         transform="matrix(-0.73288538,0,0,-0.73288538,37.89504,459.33352)"
         id="g5847"
         style="stroke-width:3.61015987;stroke-miterlimit:4;stroke-dasharray:none">
        <path
           inkscape:connector-curvature="0"
           style="fill:none;fill-opacity:1;stroke:#666666;stroke-width:3.61015987;stroke-linecap:round;stroke-miterlimit:4;stroke-dasharray:none;stroke-dashoffset:0;stroke-opacity:1"
           d="M 25.4189,277.25073 A 9.8273811,9.8273811 0 0 1 19.352295,286.33005 9.8273811,9.8273811 0 0 1 8.6425114,284.19974 9.8273811,9.8273811 0 0 1 6.5122031,273.48996 9.8273811,9.8273811 0 0 1 15.59152,267.42335"
           id="path5843" />
        <path
           style="fill:none;fill-opacity:1;stroke:#666666;stroke-width:3.61015987;stroke-linecap:round;stroke-miterlimit:4;stroke-dasharray:none;stroke-dashoffset:0;stroke-opacity:1"
           d="m 25.418901,277.25073 a 9.8273811,9.8273811 0 0 1 -6.949008,-2.87837 9.8273811,9.8273811 0 0 1 -2.878373,-6.94901"
           id="path5845"
           inkscape:connector-curvature="0" />
      </g>
      <g
         transform="matrix(0.73288538,0,0,0.73288538,15.02161,81.7498)"
         id="g5853"
         style="stroke-width:3.61015987;stroke-miterlimit:4;stroke-dasharray:none">
        <path
           inkscape:connector-curvature="0"
           style="fill:none;fill-opacity:1;stroke:#666666;stroke-width:3.61015987;stroke-linecap:round;stroke-miterlimit:4;stroke-dasharray:none;stroke-dashoffset:0;stroke-opacity:1"
           d="M 25.4189,277.25073 A 9.8273811,9.8273811 0 0 1 19.352295,286.33005 9.8273811,9.8273811 0 0 1 8.6425114,284.19974 9.8273811,9.8273811 0 0 1 6.5122031,273.48996 9.8273811,9.8273811 0 0 1 15.59152,267.42335"
           id="path5849" />
        <path
           style="fill:none;fill-opacity:1;stroke:#666666;stroke-width:3.61015987;stroke-linecap:round;stroke-miterlimit:4;stroke-dasharray:none;stroke-dashoffset:0;stroke-opacity:1"
           d="m 25.418901,277.25073 a 9.8273811,9.8273811 0 0 1 -6.949008,-2.87837 9.8273811,9.8273811 0 0 1 -2.878373,-6.94901"
           id="path5851"
           inkscape:connector-curvature="0" />
      </g>
    </g>
  </g>
</svg>
