<?xml version="1.0" encoding="UTF-8" standalone="no"?>
<!-- Generator: Adobe Illustrator 16.0.0, SVG Export Plug-In . SVG Version: 6.00 Build 0)  -->

<svg
   xmlns:dc="http://purl.org/dc/elements/1.1/"
   xmlns:cc="http://creativecommons.org/ns#"
   xmlns:rdf="http://www.w3.org/1999/02/22-rdf-syntax-ns#"
   xmlns:svg="http://www.w3.org/2000/svg"
   xmlns="http://www.w3.org/2000/svg"
   xmlns:sodipodi="http://sodipodi.sourceforge.net/DTD/sodipodi-0.dtd"
   xmlns:inkscape="http://www.inkscape.org/namespaces/inkscape"
   version="1.1"
   id="Capa_1"
   x="0px"
   y="0px"
   width="491.535px"
   height="491.535px"
   viewBox="0 0 491.535 491.535"
   style="enable-background:new 0 0 491.535 491.535;"
   xml:space="preserve"
   sodipodi:docname="light_on.svg"
   inkscape:version="0.92.3 (2405546, 2018-03-11)"><metadata
   id="metadata913"><rdf:RDF><cc:Work
       rdf:about=""><dc:format>image/svg+xml</dc:format><dc:type
         rdf:resource="http://purl.org/dc/dcmitype/StillImage" /></cc:Work></rdf:RDF></metadata><defs
   id="defs911" /><sodipodi:namedview
   pagecolor="#ffffff"
   bordercolor="#666666"
   borderopacity="1"
   objecttolerance="10"
   gridtolerance="10"
   guidetolerance="10"
   inkscape:pageopacity="0"
   inkscape:pageshadow="2"
   inkscape:window-width="1366"
   inkscape:window-height="705"
   id="namedview909"
   showgrid="false"
   inkscape:zoom="1.0904615"
   inkscape:cx="245.7675"
   inkscape:cy="245.7675"
   inkscape:window-x="-8"
   inkscape:window-y="-8"
   inkscape:window-maximized="1"
   inkscape:current-layer="Capa_1" />
<g
   id="g876"
   style="fill:#ffff00;fill-opacity:1">
	<g
   id="g874"
   style="fill:#ffff00;fill-opacity:1">
		<g
   id="Icons_9_"
   style="fill:#ffff00;fill-opacity:1">
			<g
   id="g871"
   style="fill:#ffff00;fill-opacity:1">
				<path
   d="M306.545,367.594H185.003c-9.041,0-16.382,7.338-16.382,16.385c0,9.05,7.341,16.384,16.382,16.384h121.542      c9.041,0,16.389-7.334,16.389-16.384C322.934,374.932,315.586,367.594,306.545,367.594z"
   id="path865"
   style="fill:#ffff00;fill-opacity:1" />
				<path
   d="M213.917,464.367v8.926c0,10.076,8.157,18.242,18.239,18.242h27.233c10.062,0,18.239-8.166,18.239-18.242v-8.926      c20.642-1.467,36.981-18.498,36.981-39.506H176.92C176.921,445.869,193.277,462.9,213.917,464.367z"
   id="path867"
   style="fill:#ffff00;fill-opacity:1" />
				<path
   d="M245.777,0C155.084,0,81.561,73.516,81.561,164.207c0,38.268,13.164,73.396,35.152,101.287      c19.444,24.647,37.874,51.592,53.76,78.688h150.583c16.049-27.353,34.146-53.793,53.78-78.707      c21.968-27.878,35.139-63.011,35.139-101.27C409.975,73.517,336.451,0,245.777,0z M246.05,56.971      c-58.297,0-105.702,47.412-105.702,105.692c0,9.048-7.327,16.385-16.389,16.385c-9.056,0-16.383-7.337-16.383-16.385      c0-76.346,62.114-138.46,138.474-138.46c9.034,0,16.383,7.334,16.383,16.382S255.084,56.971,246.05,56.971z"
   id="path869"
   style="fill:#ffff00;fill-opacity:1" />
			</g>
		</g>
	</g>
</g>
<g
   id="g878">
</g>
<g
   id="g880">
</g>
<g
   id="g882">
</g>
<g
   id="g884">
</g>
<g
   id="g886">
</g>
<g
   id="g888">
</g>
<g
   id="g890">
</g>
<g
   id="g892">
</g>
<g
   id="g894">
</g>
<g
   id="g896">
</g>
<g
   id="g898">
</g>
<g
   id="g900">
</g>
<g
   id="g902">
</g>
<g
   id="g904">
</g>
<g
   id="g906">
</g>
</svg>