<?xml version="1.0" encoding="UTF-8" standalone="no"?>
<!-- Created with Inkscape (http://www.inkscape.org/) -->

<svg
   xmlns:dc="http://purl.org/dc/elements/1.1/"
   xmlns:cc="http://creativecommons.org/ns#"
   xmlns:rdf="http://www.w3.org/1999/02/22-rdf-syntax-ns#"
   xmlns:svg="http://www.w3.org/2000/svg"
   xmlns="http://www.w3.org/2000/svg"
   xmlns:sodipodi="http://sodipodi.sourceforge.net/DTD/sodipodi-0.dtd"
   xmlns:inkscape="http://www.inkscape.org/namespaces/inkscape"
   width="69.323914mm"
   height="94.252197mm"
   viewBox="0 0 69.323914 94.252197"
   version="1.1"
   id="svg1007"
   inkscape:version="0.92.3 (2405546, 2018-03-11)"
   sodipodi:docname="floorplan.svg">
  <defs
     id="defs1001" />
  <sodipodi:namedview
     id="base"
     pagecolor="#ffffff"
     bordercolor="#666666"
     borderopacity="1.0"
     inkscape:pageopacity="0.0"
     inkscape:pageshadow="2"
     inkscape:zoom="1.4"
     inkscape:cx="-0.56883705"
     inkscape:cy="220.11548"
     inkscape:document-units="mm"
     inkscape:current-layer="layer1"
     showgrid="false"
     inkscape:window-width="1920"
     inkscape:window-height="1017"
     inkscape:window-x="-8"
     inkscape:window-y="-8"
     inkscape:window-maximized="1"
     fit-margin-top="0"
     fit-margin-left="0"
     fit-margin-right="0"
     fit-margin-bottom="0" />
  <metadata
     id="metadata1004">
    <rdf:RDF>
      <cc:Work
         rdf:about="">
        <dc:format>image/svg+xml</dc:format>
        <dc:type
           rdf:resource="http://purl.org/dc/dcmitype/StillImage" />
        <dc:title></dc:title>
      </cc:Work>
    </rdf:RDF>
  </metadata>
  <g
     inkscape:label="Layer 1"
     inkscape:groupmode="layer"
     id="layer1"
     transform="translate(184.34053,-9.4810414)">
    <path
       id="path4999-6"
       style="fill:#535353;fill-opacity:1;fill-rule:evenodd;stroke:none;stroke-width:0.26458332px;stroke-linecap:butt;stroke-linejoin:miter;stroke-opacity:1"
       d="m -125.46309,9.4810414 h 1.50373 v 8.9791566 h 8.94274 v 85.273042 h -7.52384 v -1.27 h 6.25384 V 57.308392 h -1.59062 v -1.27 h 1.59062 v -9.504223 h -20.19882 v 9.504223 h 1.72467 v 1.27 h -8.87793 v 11.336689 h -1.27 V 57.308392 h -7.26797 -0.69735 v -1.27 h 0.69735 V 30.786701 h 1.27 v 14.477468 h 1.50354 v 1.27 h -1.50354 v 9.504223 h 13.15123 V 45.264169 h 21.46882 V 19.730198 h -8.94274 v -8.979157 h -0.23373 z m -35.43878,0 h 9.36047 v 1.2699996 h -9.36047 z m 35.43878,0 h -14.72093 v 1.2699996 h 14.72093 z m -17.15528,92.9821986 v 1.27 h 20.07791 v -1.27 z m -29.57762,0 h 20.28481 v 1.27 h -20.28481 z m 28.55729,-10.492418 h -1.27 v 10.492418 h -7.00248 v 1.27 h 9.29281 v -1.27 h -1.02033 z m -7.9027,-82.4897806 h 11.35738 v 1.2699996 h -3.50726 v 10.669558 h -7.21539 v 1.671394 h -1.27 v -2.941394 h 7.21539 v -9.399558 h -6.58012 z m -9.36047,0 h -1.91905 V 20.150599 h -10.55775 v 17.898626 h -10.96186 v 65.684015 h 12.14454 v -1.27 h -10.87454 V 71.454975 h 21.51961 V 57.308394 h 0.71231 v -1.270002 h -0.71231 v -4.856986 h -1.27 v 19.003566 h -20.24961 v -16.49734 h 10.71082 v -1.27 h -10.71082 V 39.319225 h 20.24961 v 0.880417 h 1.27 v -2.988233 h -1.27 v 0.837816 h -9.28775 V 21.420599 h 9.28775 v 8.619043 h 1.27 V 10.751041 h 0.64905 z"
       inkscape:connector-curvature="0" />
  </g>
</svg>
